<svg width="74" height="64" viewBox="0 0 74 64" fill="none" xmlns="http://www.w3.org/2000/svg">
<g filter="url(#filter0_i_3_7281)">
<circle cx="36" cy="32" r="32" fill="url(#paint0_linear_3_7281)"/>
</g>
<circle cx="36" cy="32" r="30" stroke="white" stroke-opacity="0.24" stroke-width="4"/>
<path fill-rule="evenodd" clip-rule="evenodd" d="M32.7877 21.7857C33.2341 21.7857 33.5966 22.1506 33.5966 22.6011C33.5966 23.0506 33.2352 23.4155 32.7877 23.4155L31.0562 23.4165C29.6191 23.4187 28.4499 24.5969 28.4499 26.0447V28.0736C28.4499 28.5231 28.0864 28.889 27.64 28.889C27.1935 28.889 26.8311 28.5231 26.8311 28.0736V26.0447C26.8311 23.699 28.7263 21.7889 31.0552 21.7868L32.7867 21.7857H32.7877ZM40.412 21.786H42.1052C44.4404 21.786 46.3388 23.6972 46.3388 26.0482V28.0739C46.3388 28.5233 45.9774 28.8893 45.5299 28.8893C45.0835 28.8893 44.7211 28.5233 44.7211 28.0739V26.0482C44.7211 24.5961 43.5476 23.4147 42.1052 23.4147H40.412C39.9655 23.4147 39.6031 23.0509 39.6031 22.6014C39.6031 22.1509 39.9655 21.786 40.412 21.786ZM39.5212 25.87H33.6496C32.3061 25.8839 31.2261 26.9893 31.2378 28.343V29.702C31.241 29.8604 31.3675 29.9899 31.5248 29.9952H41.6439C41.8023 29.9909 41.9287 29.8615 41.9341 29.702V28.343C41.9351 27.6892 41.6843 27.061 41.2315 26.5934C40.7818 26.13 40.1643 25.87 39.5212 25.87ZM25.7028 31.6521H47.4683C47.9147 31.6521 48.2772 32.017 48.2772 32.4675C48.2772 32.917 47.9147 33.2808 47.4683 33.2808H46.3395V37.1653C46.3395 39.5174 44.44 41.4286 42.1058 41.4286H40.4126C39.9651 41.4286 39.6026 41.0636 39.6026 40.6131C39.6026 40.1637 39.9651 39.7988 40.4126 39.7988H42.1058C43.5482 39.7988 44.7217 38.6185 44.7217 37.1653V33.2808H41.9336V34.3627C41.9443 35.7164 40.8654 36.8228 39.5208 36.8357H33.6492C32.3057 36.8228 31.2268 35.7164 31.2374 34.3627V33.2808H28.4494V37.1696C28.4494 38.6174 29.6197 39.7956 31.0578 39.7977L32.7882 39.7988C33.2347 39.7988 33.5971 40.1637 33.5971 40.6131C33.5961 41.0636 33.2347 41.4286 32.7872 41.4286L31.0557 41.4275C28.7268 41.4253 26.8305 39.5152 26.8305 37.1696V33.2808H25.7028C25.2563 33.2808 24.8928 32.917 24.8928 32.4675C24.8928 32.017 25.2563 31.6521 25.7028 31.6521Z" fill="white"/>
<defs>
<filter id="filter0_i_3_7281" x="4" y="0" width="64" height="64" filterUnits="userSpaceOnUse" color-interpolation-filters="sRGB">
<feFlood flood-opacity="0" result="BackgroundImageFix"/>
<feBlend mode="normal" in="SourceGraphic" in2="BackgroundImageFix" result="shape"/>
<feColorMatrix in="SourceAlpha" type="matrix" values="0 0 0 0 0 0 0 0 0 0 0 0 0 0 0 0 0 0 127 0" result="hardAlpha"/>
<feMorphology radius="5" operator="erode" in="SourceAlpha" result="effect1_innerShadow_3_7281"/>
<feOffset/>
<feGaussianBlur stdDeviation="2"/>
<feComposite in2="hardAlpha" operator="arithmetic" k2="-1" k3="1"/>
<feColorMatrix type="matrix" values="0 0 0 0 0 0 0 0 0 0 0 0 0 0 0 0 0 0 0.01 0"/>
<feBlend mode="normal" in2="shape" result="effect1_innerShadow_3_7281"/>
</filter>
<linearGradient id="paint0_linear_3_7281" x1="36" y1="9.53674e-07" x2="68" y2="64" gradientUnits="userSpaceOnUse">
<stop stop-color="#28AF6E"/>
<stop offset="1" stop-color="#2CCC80"/>
</linearGradient>
</defs>
</svg>
